<?xml version="1.0" encoding="UTF-8" standalone="no"?>
<!-- Created with Inkscape (http://www.inkscape.org/) -->

<svg
   xmlns:dc="http://purl.org/dc/elements/1.1/"
   xmlns:cc="http://creativecommons.org/ns#"
   xmlns:rdf="http://www.w3.org/1999/02/22-rdf-syntax-ns#"
   xmlns:svg="http://www.w3.org/2000/svg"
   xmlns="http://www.w3.org/2000/svg"
   xmlns:sodipodi="http://sodipodi.sourceforge.net/DTD/sodipodi-0.dtd"
   xmlns:inkscape="http://www.inkscape.org/namespaces/inkscape"
   width="300.21091mm"
   height="331.22122mm"
   viewBox="0 0 1063.7394 1173.6185"
   id="svg3811"
   version="1.1"
   inkscape:version="0.91 r13725"
   sodipodi:docname="island-1.svg">
  <defs
     id="defs3813" />
  <sodipodi:namedview
     id="base"
     pagecolor="#ffffff"
     bordercolor="#666666"
     borderopacity="1.0"
     inkscape:pageopacity="0"
     inkscape:pageshadow="2"
     inkscape:zoom="1.979899"
     inkscape:cx="266.52358"
     inkscape:cy="688.9013"
     inkscape:document-units="px"
     inkscape:current-layer="layer1"
     showgrid="false"
     fit-margin-top="0"
     fit-margin-left="0"
     fit-margin-right="0"
     fit-margin-bottom="0"
     inkscape:window-width="1920"
     inkscape:window-height="1056"
     inkscape:window-x="0"
     inkscape:window-y="24"
     inkscape:window-maximized="1" />
  <metadata
     id="metadata3816">
    <rdf:RDF>
      <cc:Work
         rdf:about="">
        <dc:format>image/svg+xml</dc:format>
        <dc:type
           rdf:resource="http://purl.org/dc/dcmitype/StillImage" />
        <dc:title></dc:title>
      </cc:Work>
    </rdf:RDF>
  </metadata>
  <g
     inkscape:label="Layer 1"
     inkscape:groupmode="layer"
     id="layer1"
     transform="translate(506.62678,150.59736)">
    <path
       style="fill:#000000;fill-opacity:1;fill-rule:evenodd;stroke:#000000;stroke-width:9px;stroke-linecap:butt;stroke-linejoin:miter;stroke-opacity:1"
       d="m -411.21582,640.43424 c -109.65519,-16.09911 -105.50913,-409.94712 -63.6396,-472.75137 27.52311,-41.28471 65.30916,-78.946203 100.00509,-113.642193 11.80437,-11.80431 41.28993,-4.73499 59.09392,-13.63698 22.80209,-11.40111 46.78043,-46.7804696 59.09393,-59.094 30.99489,-30.99483 81.66061,-26.30025 118.18785,-40.91112 99.115006,-39.645994 208.844898,-118.290517 322.74373,-72.730987 21.72585,8.69031 41.05884,31.96746 59.09394,50.002563 6.78971,6.78969 45.36659,8.86563 45.45686,9.09135 15.86598,39.664984 -26.27661,106.545784 -4.54569,150.007684 13.97322,27.946443 86.87856,95.969883 113.64216,122.733543 43.5399,43.53984 69.28515,122.35653 104.55078,172.73601 13.899,19.85571 34.64313,25.55181 50.00256,40.91121 1.09935,1.09935 -4.54569,53.26821 -4.54569,59.09391 0,136.56627 7.81734,260.37819 -90.91374,359.10927 -25.86543,25.86546 -150.9429,56.35341 -190.9188,36.36549 -12.50853,-6.25428 -20.22642,-24.09093 -31.81982,-31.81986 -10.06134,-6.70752 -38.48914,1.36026 -45.45687,-9.09135 -6.3865,-9.57978 -4.96207,-36.78192 -13.63705,-45.45684 -8.63814,-8.63811 -20.23055,14.31963 -31.81982,18.1827 -37.41915,12.4731 -72.101818,28.57968 -109.096462,40.91121 -31.4190365,10.47303 -70.69079,34.32528 -95.45942,59.09391 -9.628317,9.62829 -18.561915,50.19219 -27.27412,54.54828 -88.039308,44.01963 -120.446988,63.63953 -227.284328,63.63953 -37.85542,0 -73.62535,6.5577 -104.55079,-18.18269 -59.48583,-47.58867 -54.20016,-191.61495 -22.72842,-254.55843 9.38814,-18.77625 33.56034,-23.40432 40.91118,-45.45684 5.874,-17.622 -1.74108,-44.3934 -9.09138,-59.094 z"
       id="path4229"
       inkscape:connector-curvature="0" />
  </g>
</svg>
