<?xml version="1.0" encoding="UTF-8" standalone="no"?>
<!-- Created with Inkscape (http://www.inkscape.org/) -->

<svg
   xmlns:dc="http://purl.org/dc/elements/1.1/"
   xmlns:cc="http://creativecommons.org/ns#"
   xmlns:rdf="http://www.w3.org/1999/02/22-rdf-syntax-ns#"
   xmlns:svg="http://www.w3.org/2000/svg"
   xmlns="http://www.w3.org/2000/svg"
   xmlns:sodipodi="http://sodipodi.sourceforge.net/DTD/sodipodi-0.dtd"
   xmlns:inkscape="http://www.inkscape.org/namespaces/inkscape"
   width="297.07233mm"
   height="428.24374mm"
   viewBox="0 0 1052.6185 1517.399"
   id="svg3811"
   version="1.1"
   inkscape:version="0.91 r13725"
   sodipodi:docname="island-3.svg">
  <defs
     id="defs3813" />
  <sodipodi:namedview
     id="base"
     pagecolor="#ffffff"
     bordercolor="#666666"
     borderopacity="1.0"
     inkscape:pageopacity="0"
     inkscape:pageshadow="2"
     inkscape:zoom="1.979899"
     inkscape:cx="471.86209"
     inkscape:cy="812.95281"
     inkscape:document-units="px"
     inkscape:current-layer="layer1"
     showgrid="false"
     fit-margin-top="0"
     fit-margin-left="0"
     fit-margin-right="0"
     fit-margin-bottom="0"
     inkscape:window-width="1920"
     inkscape:window-height="1056"
     inkscape:window-x="0"
     inkscape:window-y="24"
     inkscape:window-maximized="1" />
  <metadata
     id="metadata3816">
    <rdf:RDF>
      <cc:Work
         rdf:about="">
        <dc:format>image/svg+xml</dc:format>
        <dc:type
           rdf:resource="http://purl.org/dc/dcmitype/StillImage" />
        <dc:title></dc:title>
      </cc:Work>
    </rdf:RDF>
  </metadata>
  <g
     inkscape:label="Layer 1"
     inkscape:groupmode="layer"
     id="layer1"
     transform="translate(282.69361,454.65405)">
    <path
       style="fill:#000000;fill-opacity:1;fill-rule:evenodd;stroke:#000000;stroke-width:9px;stroke-linecap:butt;stroke-linejoin:miter;stroke-opacity:1"
       d="m -189.74427,122.60243 c -34.36218,119.22516 26.77419,269.49528 -18.18279,386.38341 -12.47436,32.43348 -57.83499,98.25642 -63.63954,127.27917 -10.78929,53.94645 -7.64334,136.0683 4.54563,190.91889 10.08333,45.37476 48.63609,68.89293 81.82242,100.00503 102.394445,95.99477 129.303725,159.78667 281.832485,118.18787 25.563325,-6.9718 32.225035,-33.8001 50.002555,-40.9112 30.16701,-12.06672 74.30913,0.3006 100.00512,-31.81974 26.13303,-32.66631 46.53351,-228.36096 54.54828,-236.37573 33.10767,-33.10776 70.56045,-35.77842 95.4594,-77.2767 10.16442,-16.9407 39.33774,4.54572 59.09391,4.54572 44.67951,0 68.24115,10.51344 90.91377,-27.27414 11.27862,-18.79776 108.63846,20.00331 131.82489,4.54572 46.15794,-30.77199 20.18448,-145.10061 54.54819,-190.91889 5.89959,-7.86609 36.84609,-49.04136 31.81986,-59.09391 -0.005,-0.009 -55.2087,-6.89229 -63.63963,-13.63707 -32.31261,-25.85007 -31.96386,-54.83637 -50.00256,-90.91368 -10.59678,-21.19356 -37.21608,-29.40057 -45.45684,-50.00256 -24.29874,-60.74685 64.9332,-166.490643 86.36805,-213.647223 38.91987,-85.62384 11.90673,-177.604467 -36.36549,-250.012797 -7.23024,-10.84536 -22.60305,-13.5117 -31.81986,-22.72842 -45.12006,-45.12015 -79.98624,-82.19673 -127.27917,-122.73354 -19.57509,-16.77861 -30.37959,-47.9412 -50.00256,-63.63963 -9.05265,-7.24212 -51.47325,-13.63707 -63.63963,-13.63707 -1.12203,0 1.78065,57.31326 0,59.09391 -16.64451,16.6446 -48.16926,33.92109 -63.63963,54.54828 -13.65687,18.20916 -8.13744,34.93458 -18.1827,50.00256 -20.39526,30.5928 -79.6689,44.3403 -113.64219,50.00256 -65.02428,10.83735 -352.84284,-17.07858 -381.83769,40.91112 -13.96539,27.93087 -73.02852,176.984277 -45.45684,204.5559574 23.16366,23.1636596 100.49904,12.6491396 50.00256,113.6421026 z"
       id="path3373"
       inkscape:connector-curvature="0" />
  </g>
</svg>
